<?xml version="1.0" encoding="UTF-8" standalone="no"?>
<!DOCTYPE svg PUBLIC "-//W3C//DTD SVG 1.1//EN"
 "http://www.w3.org/Graphics/SVG/1.1/DTD/svg11.dtd">
<!-- Generated by graphviz version 2.38.0 (20140413.2041)
 -->
<!-- Title: controllers_diagram Pages: 1 -->
<svg width="1001pt" height="944pt"
 viewBox="0.00 0.00 1001.00 944.00" xmlns="http://www.w3.org/2000/svg" xmlns:xlink="http://www.w3.org/1999/xlink">
<g id="graph0" class="graph" transform="scale(1 1) rotate(0) translate(403 579)">
<title>controllers_diagram</title>
<polygon fill="none" stroke="none" points="-403,365 -403,-579 598,-579 598,365 -403,365"/>
<!-- _diagram_info -->
<g id="node1" class="node"><title>_diagram_info</title>
<text text-anchor="start" x="388" y="-215.6" font-family="Times,serif" font-size="13.00">Controllers diagram</text>
<text text-anchor="start" x="388" y="-201.6" font-family="Times,serif" font-size="13.00">Date: Oct 20 2015 &#45; 21:12</text>
<text text-anchor="start" x="388" y="-187.6" font-family="Times,serif" font-size="13.00">Migration version: 20150925232222</text>
<text text-anchor="start" x="388" y="-173.6" font-family="Times,serif" font-size="13.00">Generated by RailRoady 1.4.0</text>
<text text-anchor="start" x="388" y="-159.6" font-family="Times,serif" font-size="13.00">http://railroady.prestonlee.com</text>
</g>
<!-- PedidosController -->
<g id="node2" class="node"><title>PedidosController</title>
<path fill="none" stroke="black" d="M-102.5,360.5C-102.5,360.5 -11.5,360.5 -11.5,360.5 -5.5,360.5 0.5,354.5 0.5,348.5 0.5,348.5 0.5,159.5 0.5,159.5 0.5,153.5 -5.5,147.5 -11.5,147.5 -11.5,147.5 -102.5,147.5 -102.5,147.5 -108.5,147.5 -114.5,153.5 -114.5,159.5 -114.5,159.5 -114.5,348.5 -114.5,348.5 -114.5,354.5 -108.5,360.5 -102.5,360.5"/>
<text text-anchor="middle" x="-57" y="162.7" font-family="Times,serif" font-size="14.00">PedidosController</text>
<polyline fill="none" stroke="black" points="-114.5,170.5 0.5,170.5 "/>
<text text-anchor="start" x="-106.5" y="185.7" font-family="Times,serif" font-size="14.00">create</text>
<text text-anchor="start" x="-106.5" y="200.7" font-family="Times,serif" font-size="14.00">destroy</text>
<text text-anchor="start" x="-106.5" y="215.7" font-family="Times,serif" font-size="14.00">edit</text>
<text text-anchor="start" x="-106.5" y="230.7" font-family="Times,serif" font-size="14.00">index</text>
<text text-anchor="start" x="-106.5" y="245.7" font-family="Times,serif" font-size="14.00">new</text>
<text text-anchor="start" x="-106.5" y="260.7" font-family="Times,serif" font-size="14.00">show</text>
<text text-anchor="start" x="-106.5" y="275.7" font-family="Times,serif" font-size="14.00">update</text>
<polyline fill="none" stroke="black" points="-114.5,283.5 0.5,283.5 "/>
<polyline fill="none" stroke="black" points="-114.5,307.5 0.5,307.5 "/>
<text text-anchor="start" x="-106.5" y="322.7" font-family="Times,serif" font-size="14.00">_layout</text>
<text text-anchor="start" x="-106.5" y="337.7" font-family="Times,serif" font-size="14.00">pedido_params</text>
<text text-anchor="start" x="-106.5" y="352.7" font-family="Times,serif" font-size="14.00">set_pedido</text>
</g>
<!-- ProductosController -->
<g id="node3" class="node"><title>ProductosController</title>
<path fill="none" stroke="black" d="M-254,-266.5C-254,-266.5 -152,-266.5 -152,-266.5 -146,-266.5 -140,-272.5 -140,-278.5 -140,-278.5 -140,-467.5 -140,-467.5 -140,-473.5 -146,-479.5 -152,-479.5 -152,-479.5 -254,-479.5 -254,-479.5 -260,-479.5 -266,-473.5 -266,-467.5 -266,-467.5 -266,-278.5 -266,-278.5 -266,-272.5 -260,-266.5 -254,-266.5"/>
<text text-anchor="middle" x="-203" y="-464.3" font-family="Times,serif" font-size="14.00">ProductosController</text>
<polyline fill="none" stroke="black" points="-266,-456.5 -140,-456.5 "/>
<text text-anchor="start" x="-258" y="-441.3" font-family="Times,serif" font-size="14.00">create</text>
<text text-anchor="start" x="-258" y="-426.3" font-family="Times,serif" font-size="14.00">destroy</text>
<text text-anchor="start" x="-258" y="-411.3" font-family="Times,serif" font-size="14.00">edit</text>
<text text-anchor="start" x="-258" y="-396.3" font-family="Times,serif" font-size="14.00">index</text>
<text text-anchor="start" x="-258" y="-381.3" font-family="Times,serif" font-size="14.00">new</text>
<text text-anchor="start" x="-258" y="-366.3" font-family="Times,serif" font-size="14.00">show</text>
<text text-anchor="start" x="-258" y="-351.3" font-family="Times,serif" font-size="14.00">update</text>
<polyline fill="none" stroke="black" points="-266,-343.5 -140,-343.5 "/>
<polyline fill="none" stroke="black" points="-266,-319.5 -140,-319.5 "/>
<text text-anchor="start" x="-258" y="-304.3" font-family="Times,serif" font-size="14.00">_layout</text>
<text text-anchor="start" x="-258" y="-289.3" font-family="Times,serif" font-size="14.00">producto_params</text>
<text text-anchor="start" x="-258" y="-274.3" font-family="Times,serif" font-size="14.00">set_producto</text>
</g>
<!-- DreamsController -->
<g id="node4" class="node"><title>DreamsController</title>
<path fill="none" stroke="black" d="M87.5,-381C87.5,-381 178.5,-381 178.5,-381 184.5,-381 190.5,-387 190.5,-393 190.5,-393 190.5,-507 190.5,-507 190.5,-513 184.5,-519 178.5,-519 178.5,-519 87.5,-519 87.5,-519 81.5,-519 75.5,-513 75.5,-507 75.5,-507 75.5,-393 75.5,-393 75.5,-387 81.5,-381 87.5,-381"/>
<text text-anchor="middle" x="133" y="-503.8" font-family="Times,serif" font-size="14.00">DreamsController</text>
<polyline fill="none" stroke="black" points="75.5,-496 190.5,-496 "/>
<text text-anchor="start" x="83.5" y="-480.8" font-family="Times,serif" font-size="14.00">content</text>
<text text-anchor="start" x="83.5" y="-465.8" font-family="Times,serif" font-size="14.00">correct_user</text>
<text text-anchor="start" x="83.5" y="-450.8" font-family="Times,serif" font-size="14.00">dream_params</text>
<text text-anchor="start" x="83.5" y="-435.8" font-family="Times,serif" font-size="14.00">index</text>
<polyline fill="none" stroke="black" points="75.5,-428 190.5,-428 "/>
<polyline fill="none" stroke="black" points="75.5,-404 190.5,-404 "/>
<text text-anchor="start" x="83.5" y="-388.8" font-family="Times,serif" font-size="14.00">_layout</text>
</g>
<!-- CanvasLadoDerechosController -->
<g id="node5" class="node"><title>CanvasLadoDerechosController</title>
<path fill="none" stroke="black" d="M-82.5,-133.5C-82.5,-133.5 84.5,-133.5 84.5,-133.5 90.5,-133.5 96.5,-139.5 96.5,-145.5 96.5,-145.5 96.5,-334.5 96.5,-334.5 96.5,-340.5 90.5,-346.5 84.5,-346.5 84.5,-346.5 -82.5,-346.5 -82.5,-346.5 -88.5,-346.5 -94.5,-340.5 -94.5,-334.5 -94.5,-334.5 -94.5,-145.5 -94.5,-145.5 -94.5,-139.5 -88.5,-133.5 -82.5,-133.5"/>
<text text-anchor="middle" x="1" y="-331.3" font-family="Times,serif" font-size="14.00">CanvasLadoDerechosController</text>
<polyline fill="none" stroke="black" points="-94.5,-323.5 96.5,-323.5 "/>
<text text-anchor="start" x="-86.5" y="-308.3" font-family="Times,serif" font-size="14.00">create</text>
<text text-anchor="start" x="-86.5" y="-293.3" font-family="Times,serif" font-size="14.00">destroy</text>
<text text-anchor="start" x="-86.5" y="-278.3" font-family="Times,serif" font-size="14.00">edit</text>
<text text-anchor="start" x="-86.5" y="-263.3" font-family="Times,serif" font-size="14.00">index</text>
<text text-anchor="start" x="-86.5" y="-248.3" font-family="Times,serif" font-size="14.00">new</text>
<text text-anchor="start" x="-86.5" y="-233.3" font-family="Times,serif" font-size="14.00">show</text>
<text text-anchor="start" x="-86.5" y="-218.3" font-family="Times,serif" font-size="14.00">update</text>
<polyline fill="none" stroke="black" points="-94.5,-210.5 96.5,-210.5 "/>
<polyline fill="none" stroke="black" points="-94.5,-186.5 96.5,-186.5 "/>
<text text-anchor="start" x="-86.5" y="-171.3" font-family="Times,serif" font-size="14.00">_layout</text>
<text text-anchor="start" x="-86.5" y="-156.3" font-family="Times,serif" font-size="14.00">canvas_lado_derecho_params</text>
<text text-anchor="start" x="-86.5" y="-141.3" font-family="Times,serif" font-size="14.00">set_canvas_lado_derecho</text>
</g>
<!-- ComplicesController -->
<g id="node6" class="node"><title>ComplicesController</title>
<path fill="none" stroke="black" d="M-272.5,-0.5C-272.5,-0.5 -165.5,-0.5 -165.5,-0.5 -159.5,-0.5 -153.5,-6.5 -153.5,-12.5 -153.5,-12.5 -153.5,-201.5 -153.5,-201.5 -153.5,-207.5 -159.5,-213.5 -165.5,-213.5 -165.5,-213.5 -272.5,-213.5 -272.5,-213.5 -278.5,-213.5 -284.5,-207.5 -284.5,-201.5 -284.5,-201.5 -284.5,-12.5 -284.5,-12.5 -284.5,-6.5 -278.5,-0.5 -272.5,-0.5"/>
<text text-anchor="middle" x="-219" y="-198.3" font-family="Times,serif" font-size="14.00">ComplicesController</text>
<polyline fill="none" stroke="black" points="-284.5,-190.5 -153.5,-190.5 "/>
<text text-anchor="start" x="-276.5" y="-175.3" font-family="Times,serif" font-size="14.00">create</text>
<text text-anchor="start" x="-276.5" y="-160.3" font-family="Times,serif" font-size="14.00">destroy</text>
<text text-anchor="start" x="-276.5" y="-145.3" font-family="Times,serif" font-size="14.00">edit</text>
<text text-anchor="start" x="-276.5" y="-130.3" font-family="Times,serif" font-size="14.00">index</text>
<text text-anchor="start" x="-276.5" y="-115.3" font-family="Times,serif" font-size="14.00">new</text>
<text text-anchor="start" x="-276.5" y="-100.3" font-family="Times,serif" font-size="14.00">show</text>
<text text-anchor="start" x="-276.5" y="-85.3" font-family="Times,serif" font-size="14.00">update</text>
<polyline fill="none" stroke="black" points="-284.5,-77.5 -153.5,-77.5 "/>
<polyline fill="none" stroke="black" points="-284.5,-53.5 -153.5,-53.5 "/>
<text text-anchor="start" x="-276.5" y="-38.3" font-family="Times,serif" font-size="14.00">_layout</text>
<text text-anchor="start" x="-276.5" y="-23.3" font-family="Times,serif" font-size="14.00">complice_params</text>
<text text-anchor="start" x="-276.5" y="-8.3" font-family="Times,serif" font-size="14.00">set_complice</text>
</g>
<!-- CanvasLadoIzquierdosController -->
<g id="node7" class="node"><title>CanvasLadoIzquierdosController</title>
<path fill="none" stroke="black" d="M145.5,132.5C145.5,132.5 318.5,132.5 318.5,132.5 324.5,132.5 330.5,126.5 330.5,120.5 330.5,120.5 330.5,-68.5 330.5,-68.5 330.5,-74.5 324.5,-80.5 318.5,-80.5 318.5,-80.5 145.5,-80.5 145.5,-80.5 139.5,-80.5 133.5,-74.5 133.5,-68.5 133.5,-68.5 133.5,120.5 133.5,120.5 133.5,126.5 139.5,132.5 145.5,132.5"/>
<text text-anchor="middle" x="232" y="-65.3" font-family="Times,serif" font-size="14.00">CanvasLadoIzquierdosController</text>
<polyline fill="none" stroke="black" points="133.5,-57.5 330.5,-57.5 "/>
<text text-anchor="start" x="141.5" y="-42.3" font-family="Times,serif" font-size="14.00">create</text>
<text text-anchor="start" x="141.5" y="-27.3" font-family="Times,serif" font-size="14.00">destroy</text>
<text text-anchor="start" x="141.5" y="-12.3" font-family="Times,serif" font-size="14.00">edit</text>
<text text-anchor="start" x="141.5" y="2.7" font-family="Times,serif" font-size="14.00">index</text>
<text text-anchor="start" x="141.5" y="17.7" font-family="Times,serif" font-size="14.00">new</text>
<text text-anchor="start" x="141.5" y="32.7" font-family="Times,serif" font-size="14.00">show</text>
<text text-anchor="start" x="141.5" y="47.7" font-family="Times,serif" font-size="14.00">update</text>
<polyline fill="none" stroke="black" points="133.5,55.5 330.5,55.5 "/>
<polyline fill="none" stroke="black" points="133.5,79.5 330.5,79.5 "/>
<text text-anchor="start" x="141.5" y="94.7" font-family="Times,serif" font-size="14.00">_layout</text>
<text text-anchor="start" x="141.5" y="109.7" font-family="Times,serif" font-size="14.00">canvas_lado_izquierdo_params</text>
<text text-anchor="start" x="141.5" y="124.7" font-family="Times,serif" font-size="14.00">set_canvas_lado_izquierdo</text>
</g>
<!-- PageController -->
<g id="node8" class="node"><title>PageController</title>
<path fill="none" stroke="black" d="M-387,-399.5C-387,-399.5 -313,-399.5 -313,-399.5 -307,-399.5 -301,-405.5 -301,-411.5 -301,-411.5 -301,-480.5 -301,-480.5 -301,-486.5 -307,-492.5 -313,-492.5 -313,-492.5 -387,-492.5 -387,-492.5 -393,-492.5 -399,-486.5 -399,-480.5 -399,-480.5 -399,-411.5 -399,-411.5 -399,-405.5 -393,-399.5 -387,-399.5"/>
<text text-anchor="middle" x="-350" y="-477.3" font-family="Times,serif" font-size="14.00">PageController</text>
<polyline fill="none" stroke="black" points="-399,-469.5 -301,-469.5 "/>
<text text-anchor="start" x="-391" y="-454.3" font-family="Times,serif" font-size="14.00">challenges</text>
<polyline fill="none" stroke="black" points="-399,-446.5 -301,-446.5 "/>
<polyline fill="none" stroke="black" points="-399,-422.5 -301,-422.5 "/>
<text text-anchor="start" x="-391" y="-407.3" font-family="Times,serif" font-size="14.00">_layout</text>
</g>
<!-- EtapasController -->
<g id="node9" class="node"><title>EtapasController</title>
<path fill="none" stroke="black" d="M373,-361.5C373,-361.5 457,-361.5 457,-361.5 463,-361.5 469,-367.5 469,-373.5 469,-373.5 469,-562.5 469,-562.5 469,-568.5 463,-574.5 457,-574.5 457,-574.5 373,-574.5 373,-574.5 367,-574.5 361,-568.5 361,-562.5 361,-562.5 361,-373.5 361,-373.5 361,-367.5 367,-361.5 373,-361.5"/>
<text text-anchor="middle" x="415" y="-559.3" font-family="Times,serif" font-size="14.00">EtapasController</text>
<polyline fill="none" stroke="black" points="361,-551.5 469,-551.5 "/>
<text text-anchor="start" x="369" y="-536.3" font-family="Times,serif" font-size="14.00">create</text>
<text text-anchor="start" x="369" y="-521.3" font-family="Times,serif" font-size="14.00">destroy</text>
<text text-anchor="start" x="369" y="-506.3" font-family="Times,serif" font-size="14.00">edit</text>
<text text-anchor="start" x="369" y="-491.3" font-family="Times,serif" font-size="14.00">index</text>
<text text-anchor="start" x="369" y="-476.3" font-family="Times,serif" font-size="14.00">new</text>
<text text-anchor="start" x="369" y="-461.3" font-family="Times,serif" font-size="14.00">show</text>
<text text-anchor="start" x="369" y="-446.3" font-family="Times,serif" font-size="14.00">update</text>
<polyline fill="none" stroke="black" points="361,-438.5 469,-438.5 "/>
<polyline fill="none" stroke="black" points="361,-414.5 469,-414.5 "/>
<text text-anchor="start" x="369" y="-399.3" font-family="Times,serif" font-size="14.00">_layout</text>
<text text-anchor="start" x="369" y="-384.3" font-family="Times,serif" font-size="14.00">etapa_params</text>
<text text-anchor="start" x="369" y="-369.3" font-family="Times,serif" font-size="14.00">set_etapa</text>
</g>
<!-- CanvasFinancieroIngresosController -->
<g id="node10" class="node"><title>CanvasFinancieroIngresosController</title>
<path fill="none" stroke="black" d="M-101.5,113.5C-101.5,113.5 89.5,113.5 89.5,113.5 95.5,113.5 101.5,107.5 101.5,101.5 101.5,101.5 101.5,-87.5 101.5,-87.5 101.5,-93.5 95.5,-99.5 89.5,-99.5 89.5,-99.5 -101.5,-99.5 -101.5,-99.5 -107.5,-99.5 -113.5,-93.5 -113.5,-87.5 -113.5,-87.5 -113.5,101.5 -113.5,101.5 -113.5,107.5 -107.5,113.5 -101.5,113.5"/>
<text text-anchor="middle" x="-6" y="-84.3" font-family="Times,serif" font-size="14.00">CanvasFinancieroIngresosController</text>
<polyline fill="none" stroke="black" points="-113.5,-76.5 101.5,-76.5 "/>
<text text-anchor="start" x="-105.5" y="-61.3" font-family="Times,serif" font-size="14.00">create</text>
<text text-anchor="start" x="-105.5" y="-46.3" font-family="Times,serif" font-size="14.00">destroy</text>
<text text-anchor="start" x="-105.5" y="-31.3" font-family="Times,serif" font-size="14.00">edit</text>
<text text-anchor="start" x="-105.5" y="-16.3" font-family="Times,serif" font-size="14.00">index</text>
<text text-anchor="start" x="-105.5" y="-1.3" font-family="Times,serif" font-size="14.00">new</text>
<text text-anchor="start" x="-105.5" y="13.7" font-family="Times,serif" font-size="14.00">show</text>
<text text-anchor="start" x="-105.5" y="28.7" font-family="Times,serif" font-size="14.00">update</text>
<polyline fill="none" stroke="black" points="-113.5,36.5 101.5,36.5 "/>
<polyline fill="none" stroke="black" points="-113.5,60.5 101.5,60.5 "/>
<text text-anchor="start" x="-105.5" y="75.7" font-family="Times,serif" font-size="14.00">_layout</text>
<text text-anchor="start" x="-105.5" y="90.7" font-family="Times,serif" font-size="14.00">canvas_financiero_ingreso_params</text>
<text text-anchor="start" x="-105.5" y="105.7" font-family="Times,serif" font-size="14.00">set_canvas_financiero_ingreso</text>
</g>
<!-- CanvasFinancieroCostosController -->
<g id="node11" class="node"><title>CanvasFinancieroCostosController</title>
<path fill="none" stroke="black" d="M145,-114.5C145,-114.5 327,-114.5 327,-114.5 333,-114.5 339,-120.5 339,-126.5 339,-126.5 339,-315.5 339,-315.5 339,-321.5 333,-327.5 327,-327.5 327,-327.5 145,-327.5 145,-327.5 139,-327.5 133,-321.5 133,-315.5 133,-315.5 133,-126.5 133,-126.5 133,-120.5 139,-114.5 145,-114.5"/>
<text text-anchor="middle" x="236" y="-312.3" font-family="Times,serif" font-size="14.00">CanvasFinancieroCostosController</text>
<polyline fill="none" stroke="black" points="133,-304.5 339,-304.5 "/>
<text text-anchor="start" x="141" y="-289.3" font-family="Times,serif" font-size="14.00">create</text>
<text text-anchor="start" x="141" y="-274.3" font-family="Times,serif" font-size="14.00">destroy</text>
<text text-anchor="start" x="141" y="-259.3" font-family="Times,serif" font-size="14.00">edit</text>
<text text-anchor="start" x="141" y="-244.3" font-family="Times,serif" font-size="14.00">index</text>
<text text-anchor="start" x="141" y="-229.3" font-family="Times,serif" font-size="14.00">new</text>
<text text-anchor="start" x="141" y="-214.3" font-family="Times,serif" font-size="14.00">show</text>
<text text-anchor="start" x="141" y="-199.3" font-family="Times,serif" font-size="14.00">update</text>
<polyline fill="none" stroke="black" points="133,-191.5 339,-191.5 "/>
<polyline fill="none" stroke="black" points="133,-167.5 339,-167.5 "/>
<text text-anchor="start" x="141" y="-152.3" font-family="Times,serif" font-size="14.00">_layout</text>
<text text-anchor="start" x="141" y="-137.3" font-family="Times,serif" font-size="14.00">canvas_financiero_costo_params</text>
<text text-anchor="start" x="141" y="-122.3" font-family="Times,serif" font-size="14.00">set_canvas_financiero_costo</text>
</g>
<!-- SolutionsController -->
<g id="node12" class="node"><title>SolutionsController</title>
<path fill="none" stroke="black" d="M-253.5,265C-253.5,265 -154.5,265 -154.5,265 -148.5,265 -142.5,259 -142.5,253 -142.5,253 -142.5,49 -142.5,49 -142.5,43 -148.5,37 -154.5,37 -154.5,37 -253.5,37 -253.5,37 -259.5,37 -265.5,43 -265.5,49 -265.5,49 -265.5,253 -265.5,253 -265.5,259 -259.5,265 -253.5,265"/>
<text text-anchor="middle" x="-204" y="52.2" font-family="Times,serif" font-size="14.00">SolutionsController</text>
<polyline fill="none" stroke="black" points="-265.5,60 -142.5,60 "/>
<text text-anchor="start" x="-257.5" y="75.2" font-family="Times,serif" font-size="14.00">create</text>
<text text-anchor="start" x="-257.5" y="90.2" font-family="Times,serif" font-size="14.00">destroy</text>
<text text-anchor="start" x="-257.5" y="105.2" font-family="Times,serif" font-size="14.00">edit</text>
<text text-anchor="start" x="-257.5" y="120.2" font-family="Times,serif" font-size="14.00">index</text>
<text text-anchor="start" x="-257.5" y="135.2" font-family="Times,serif" font-size="14.00">new</text>
<text text-anchor="start" x="-257.5" y="150.2" font-family="Times,serif" font-size="14.00">show</text>
<text text-anchor="start" x="-257.5" y="165.2" font-family="Times,serif" font-size="14.00">update</text>
<polyline fill="none" stroke="black" points="-265.5,173 -142.5,173 "/>
<polyline fill="none" stroke="black" points="-265.5,197 -142.5,197 "/>
<text text-anchor="start" x="-257.5" y="212.2" font-family="Times,serif" font-size="14.00">_layout</text>
<text text-anchor="start" x="-257.5" y="227.2" font-family="Times,serif" font-size="14.00">correct_user</text>
<text text-anchor="start" x="-257.5" y="242.2" font-family="Times,serif" font-size="14.00">set_solution</text>
<text text-anchor="start" x="-257.5" y="257.2" font-family="Times,serif" font-size="14.00">solution_params</text>
</g>
<!-- MicropostsController -->
<g id="node13" class="node"><title>MicropostsController</title>
<path fill="none" stroke="black" d="M373,360C373,360 483,360 483,360 489,360 495,354 495,348 495,348 495,144 495,144 495,138 489,132 483,132 483,132 373,132 373,132 367,132 361,138 361,144 361,144 361,348 361,348 361,354 367,360 373,360"/>
<text text-anchor="middle" x="428" y="147.2" font-family="Times,serif" font-size="14.00">MicropostsController</text>
<polyline fill="none" stroke="black" points="361,155 495,155 "/>
<text text-anchor="start" x="369" y="170.2" font-family="Times,serif" font-size="14.00">create</text>
<text text-anchor="start" x="369" y="185.2" font-family="Times,serif" font-size="14.00">destroy</text>
<text text-anchor="start" x="369" y="200.2" font-family="Times,serif" font-size="14.00">edit</text>
<text text-anchor="start" x="369" y="215.2" font-family="Times,serif" font-size="14.00">index</text>
<text text-anchor="start" x="369" y="230.2" font-family="Times,serif" font-size="14.00">new</text>
<text text-anchor="start" x="369" y="245.2" font-family="Times,serif" font-size="14.00">show</text>
<text text-anchor="start" x="369" y="260.2" font-family="Times,serif" font-size="14.00">update</text>
<polyline fill="none" stroke="black" points="361,268 495,268 "/>
<polyline fill="none" stroke="black" points="361,292 495,292 "/>
<text text-anchor="start" x="369" y="307.2" font-family="Times,serif" font-size="14.00">_layout</text>
<text text-anchor="start" x="369" y="322.2" font-family="Times,serif" font-size="14.00">correct_user</text>
<text text-anchor="start" x="369" y="337.2" font-family="Times,serif" font-size="14.00">micropost_params</text>
<text text-anchor="start" x="369" y="352.2" font-family="Times,serif" font-size="14.00">set_micropost</text>
</g>
<!-- ApplicationController -->
<g id="node14" class="node"><title>ApplicationController</title>
<path fill="none" stroke="black" d="M50,284.5C50,284.5 220,284.5 220,284.5 226,284.5 232,278.5 232,272.5 232,272.5 232,173.5 232,173.5 232,167.5 226,161.5 220,161.5 220,161.5 50,161.5 50,161.5 44,161.5 38,167.5 38,173.5 38,173.5 38,272.5 38,272.5 38,278.5 44,284.5 50,284.5"/>
<text text-anchor="middle" x="135" y="176.7" font-family="Times,serif" font-size="14.00">ApplicationController</text>
<polyline fill="none" stroke="black" points="38,184.5 232,184.5 "/>
<polyline fill="none" stroke="black" points="38,208.5 232,208.5 "/>
<text text-anchor="start" x="46" y="223.7" font-family="Times,serif" font-size="14.00">after_sign_in_path_for</text>
<text text-anchor="start" x="46" y="238.7" font-family="Times,serif" font-size="14.00">configure_permitted_parameters</text>
<text text-anchor="start" x="46" y="253.7" font-family="Times,serif" font-size="14.00">last_dream</text>
<polyline fill="none" stroke="black" points="38,261.5 232,261.5 "/>
<text text-anchor="start" x="46" y="276.7" font-family="Times,serif" font-size="14.00">_layout</text>
</g>
<!-- PagesController -->
<g id="node15" class="node"><title>PagesController</title>
<path fill="none" stroke="black" d="M-45,-380.5C-45,-380.5 35,-380.5 35,-380.5 41,-380.5 47,-386.5 47,-392.5 47,-392.5 47,-461.5 47,-461.5 47,-467.5 41,-473.5 35,-473.5 35,-473.5 -45,-473.5 -45,-473.5 -51,-473.5 -57,-467.5 -57,-461.5 -57,-461.5 -57,-392.5 -57,-392.5 -57,-386.5 -51,-380.5 -45,-380.5"/>
<text text-anchor="middle" x="-5" y="-458.3" font-family="Times,serif" font-size="14.00">PagesController</text>
<polyline fill="none" stroke="black" points="-57,-450.5 47,-450.5 "/>
<text text-anchor="start" x="-49" y="-435.3" font-family="Times,serif" font-size="14.00">patrocinios</text>
<polyline fill="none" stroke="black" points="-57,-427.5 47,-427.5 "/>
<polyline fill="none" stroke="black" points="-57,-403.5 47,-403.5 "/>
<text text-anchor="start" x="-49" y="-388.3" font-family="Times,serif" font-size="14.00">_layout</text>
</g>
<!-- WikisController -->
<g id="node16" class="node"><title>WikisController</title>
<path fill="none" stroke="black" d="M240.5,-361.5C240.5,-361.5 321.5,-361.5 321.5,-361.5 327.5,-361.5 333.5,-367.5 333.5,-373.5 333.5,-373.5 333.5,-562.5 333.5,-562.5 333.5,-568.5 327.5,-574.5 321.5,-574.5 321.5,-574.5 240.5,-574.5 240.5,-574.5 234.5,-574.5 228.5,-568.5 228.5,-562.5 228.5,-562.5 228.5,-373.5 228.5,-373.5 228.5,-367.5 234.5,-361.5 240.5,-361.5"/>
<text text-anchor="middle" x="281" y="-559.3" font-family="Times,serif" font-size="14.00">WikisController</text>
<polyline fill="none" stroke="black" points="228.5,-551.5 333.5,-551.5 "/>
<text text-anchor="start" x="236.5" y="-536.3" font-family="Times,serif" font-size="14.00">create</text>
<text text-anchor="start" x="236.5" y="-521.3" font-family="Times,serif" font-size="14.00">destroy</text>
<text text-anchor="start" x="236.5" y="-506.3" font-family="Times,serif" font-size="14.00">edit</text>
<text text-anchor="start" x="236.5" y="-491.3" font-family="Times,serif" font-size="14.00">index</text>
<text text-anchor="start" x="236.5" y="-476.3" font-family="Times,serif" font-size="14.00">new</text>
<text text-anchor="start" x="236.5" y="-461.3" font-family="Times,serif" font-size="14.00">show</text>
<text text-anchor="start" x="236.5" y="-446.3" font-family="Times,serif" font-size="14.00">update</text>
<polyline fill="none" stroke="black" points="228.5,-438.5 333.5,-438.5 "/>
<polyline fill="none" stroke="black" points="228.5,-414.5 333.5,-414.5 "/>
<text text-anchor="start" x="236.5" y="-399.3" font-family="Times,serif" font-size="14.00">_layout</text>
<text text-anchor="start" x="236.5" y="-384.3" font-family="Times,serif" font-size="14.00">set_wiki</text>
<text text-anchor="start" x="236.5" y="-369.3" font-family="Times,serif" font-size="14.00">wiki_params</text>
</g>
<!-- CanvasController -->
<g id="node17" class="node"><title>CanvasController</title>
<path fill="none" stroke="black" d="M392,94.5C392,94.5 480,94.5 480,94.5 486,94.5 492,88.5 492,82.5 492,82.5 492,-106.5 492,-106.5 492,-112.5 486,-118.5 480,-118.5 480,-118.5 392,-118.5 392,-118.5 386,-118.5 380,-112.5 380,-106.5 380,-106.5 380,82.5 380,82.5 380,88.5 386,94.5 392,94.5"/>
<text text-anchor="middle" x="436" y="-103.3" font-family="Times,serif" font-size="14.00">CanvasController</text>
<polyline fill="none" stroke="black" points="380,-95.5 492,-95.5 "/>
<text text-anchor="start" x="388" y="-80.3" font-family="Times,serif" font-size="14.00">create</text>
<text text-anchor="start" x="388" y="-65.3" font-family="Times,serif" font-size="14.00">destroy</text>
<text text-anchor="start" x="388" y="-50.3" font-family="Times,serif" font-size="14.00">edit</text>
<text text-anchor="start" x="388" y="-35.3" font-family="Times,serif" font-size="14.00">index</text>
<text text-anchor="start" x="388" y="-20.3" font-family="Times,serif" font-size="14.00">new</text>
<text text-anchor="start" x="388" y="-5.3" font-family="Times,serif" font-size="14.00">show</text>
<text text-anchor="start" x="388" y="9.7" font-family="Times,serif" font-size="14.00">update</text>
<polyline fill="none" stroke="black" points="380,17.5 492,17.5 "/>
<polyline fill="none" stroke="black" points="380,41.5 492,41.5 "/>
<text text-anchor="start" x="388" y="56.7" font-family="Times,serif" font-size="14.00">_layout</text>
<text text-anchor="start" x="388" y="71.7" font-family="Times,serif" font-size="14.00">canva_params</text>
<text text-anchor="start" x="388" y="86.7" font-family="Times,serif" font-size="14.00">set_canva</text>
</g>
</g>
</svg>
