<?xml version="1.0" encoding="UTF-8" standalone="no"?>
<!DOCTYPE svg PUBLIC "-//W3C//DTD SVG 1.1//EN"
 "http://www.w3.org/Graphics/SVG/1.1/DTD/svg11.dtd">
<!-- Generated by graphviz version 2.38.0 (20140413.2041)
 -->
<!-- Title: models_diagram Pages: 1 -->
<svg width="2984pt" height="841pt"
 viewBox="0.00 0.00 2983.50 841.00" xmlns="http://www.w3.org/2000/svg" xmlns:xlink="http://www.w3.org/1999/xlink">
<g id="graph0" class="graph" transform="scale(1 1) rotate(0) translate(4 837)">
<title>models_diagram</title>
<polygon fill="none" stroke="none" points="-4,4 -4,-837 2979.5,-837 2979.5,4 -4,4"/>
<!-- _diagram_info -->
<g id="node1" class="node"><title>_diagram_info</title>
<text text-anchor="start" x="153" y="-624.1" font-family="Times,serif" font-size="13.00">Models diagram</text>
<text text-anchor="start" x="153" y="-610.1" font-family="Times,serif" font-size="13.00">Date: Oct 20 2015 &#45; 21:12</text>
<text text-anchor="start" x="153" y="-596.1" font-family="Times,serif" font-size="13.00">Migration version: 20150925232222</text>
<text text-anchor="start" x="153" y="-582.1" font-family="Times,serif" font-size="13.00">Generated by RailRoady 1.4.0</text>
<text text-anchor="start" x="153" y="-568.1" font-family="Times,serif" font-size="13.00">http://railroady.prestonlee.com</text>
</g>
<!-- User -->
<g id="node2" class="node"><title>User</title>
<path fill="none" stroke="black" d="M389,-366.5C389,-366.5 579,-366.5 579,-366.5 585,-366.5 591,-372.5 591,-378.5 591,-378.5 591,-820.5 591,-820.5 591,-826.5 585,-832.5 579,-832.5 579,-832.5 389,-832.5 389,-832.5 383,-832.5 377,-826.5 377,-820.5 377,-820.5 377,-378.5 377,-378.5 377,-372.5 383,-366.5 389,-366.5"/>
<text text-anchor="middle" x="484" y="-817.3" font-family="Times,serif" font-size="14.00">User</text>
<polyline fill="none" stroke="black" points="377,-809.5 591,-809.5 "/>
<text text-anchor="start" x="385" y="-794.3" font-family="Times,serif" font-size="14.00">id :INTEGER</text>
<text text-anchor="start" x="385" y="-779.3" font-family="Times,serif" font-size="14.00">email :varchar(255)</text>
<text text-anchor="start" x="385" y="-764.3" font-family="Times,serif" font-size="14.00">encrypted_password :varchar(255)</text>
<text text-anchor="start" x="385" y="-749.3" font-family="Times,serif" font-size="14.00">reset_password_token :varchar(255)</text>
<text text-anchor="start" x="385" y="-734.3" font-family="Times,serif" font-size="14.00">reset_password_sent_at :datetime</text>
<text text-anchor="start" x="385" y="-719.3" font-family="Times,serif" font-size="14.00">remember_created_at :datetime</text>
<text text-anchor="start" x="385" y="-704.3" font-family="Times,serif" font-size="14.00">sign_in_count :integer</text>
<text text-anchor="start" x="385" y="-689.3" font-family="Times,serif" font-size="14.00">current_sign_in_at :datetime</text>
<text text-anchor="start" x="385" y="-674.3" font-family="Times,serif" font-size="14.00">last_sign_in_at :datetime</text>
<text text-anchor="start" x="385" y="-659.3" font-family="Times,serif" font-size="14.00">current_sign_in_ip :varchar(255)</text>
<text text-anchor="start" x="385" y="-644.3" font-family="Times,serif" font-size="14.00">last_sign_in_ip :varchar(255)</text>
<text text-anchor="start" x="385" y="-629.3" font-family="Times,serif" font-size="14.00">created_at :datetime</text>
<text text-anchor="start" x="385" y="-614.3" font-family="Times,serif" font-size="14.00">updated_at :datetime</text>
<text text-anchor="start" x="385" y="-599.3" font-family="Times,serif" font-size="14.00">sash_id :integer</text>
<text text-anchor="start" x="385" y="-584.3" font-family="Times,serif" font-size="14.00">level :integer</text>
<text text-anchor="start" x="385" y="-569.3" font-family="Times,serif" font-size="14.00">name :varchar(255)</text>
<text text-anchor="start" x="385" y="-554.3" font-family="Times,serif" font-size="14.00">lastname :varchar(255)</text>
<text text-anchor="start" x="385" y="-539.3" font-family="Times,serif" font-size="14.00">avatar_file_name :varchar(255)</text>
<text text-anchor="start" x="385" y="-524.3" font-family="Times,serif" font-size="14.00">avatar_content_type :varchar(255)</text>
<text text-anchor="start" x="385" y="-509.3" font-family="Times,serif" font-size="14.00">avatar_file_size :integer</text>
<text text-anchor="start" x="385" y="-494.3" font-family="Times,serif" font-size="14.00">avatar_updated_at :datetime</text>
<text text-anchor="start" x="385" y="-479.3" font-family="Times,serif" font-size="14.00">username :varchar(255)</text>
<text text-anchor="start" x="385" y="-464.3" font-family="Times,serif" font-size="14.00">facebook :varchar(255)</text>
<text text-anchor="start" x="385" y="-449.3" font-family="Times,serif" font-size="14.00">twitter :varchar(255)</text>
<text text-anchor="start" x="385" y="-434.3" font-family="Times,serif" font-size="14.00">country :varchar(255)</text>
<text text-anchor="start" x="385" y="-419.3" font-family="Times,serif" font-size="14.00">region :varchar(255)</text>
<text text-anchor="start" x="385" y="-404.3" font-family="Times,serif" font-size="14.00">city :varchar(255)</text>
<text text-anchor="start" x="385" y="-389.3" font-family="Times,serif" font-size="14.00">born_date :date</text>
<text text-anchor="start" x="385" y="-374.3" font-family="Times,serif" font-size="14.00">website :varchar(255)</text>
</g>
<!-- Solution -->
<g id="node8" class="node"><title>Solution</title>
<path fill="none" stroke="black" d="M12,-117.5C12,-117.5 192,-117.5 192,-117.5 198,-117.5 204,-123.5 204,-129.5 204,-129.5 204,-286.5 204,-286.5 204,-292.5 198,-298.5 192,-298.5 192,-298.5 12,-298.5 12,-298.5 6,-298.5 0,-292.5 0,-286.5 0,-286.5 0,-129.5 0,-129.5 0,-123.5 6,-117.5 12,-117.5"/>
<text text-anchor="middle" x="102" y="-283.3" font-family="Times,serif" font-size="14.00">Solution</text>
<polyline fill="none" stroke="black" points="0,-275.5 204,-275.5 "/>
<text text-anchor="start" x="8" y="-260.3" font-family="Times,serif" font-size="14.00">id :INTEGER</text>
<text text-anchor="start" x="8" y="-245.3" font-family="Times,serif" font-size="14.00">micropost_id :integer</text>
<text text-anchor="start" x="8" y="-230.3" font-family="Times,serif" font-size="14.00">content :text</text>
<text text-anchor="start" x="8" y="-215.3" font-family="Times,serif" font-size="14.00">created_at :datetime</text>
<text text-anchor="start" x="8" y="-200.3" font-family="Times,serif" font-size="14.00">updated_at :datetime</text>
<text text-anchor="start" x="8" y="-185.3" font-family="Times,serif" font-size="14.00">user_id :integer</text>
<text text-anchor="start" x="8" y="-170.3" font-family="Times,serif" font-size="14.00">image_file_name :varchar(255)</text>
<text text-anchor="start" x="8" y="-155.3" font-family="Times,serif" font-size="14.00">image_content_type :varchar(255)</text>
<text text-anchor="start" x="8" y="-140.3" font-family="Times,serif" font-size="14.00">image_file_size :integer</text>
<text text-anchor="start" x="8" y="-125.3" font-family="Times,serif" font-size="14.00">image_updated_at :datetime</text>
</g>
<!-- User&#45;&gt;Solution -->
<g id="edge3" class="edge"><title>User&#45;&gt;Solution</title>
<path fill="none" stroke="#130c24" d="M370.517,-368.035C369.683,-367.349 368.844,-366.671 368,-366 312.538,-321.954 274.132,-364.763 213,-329 201.776,-322.434 191.014,-314.374 180.908,-305.565"/>
<ellipse fill="none" stroke="#130c24" cx="373.763" cy="-370.829" rx="4.00002" ry="4.00002"/>
<polygon fill="#130c24" stroke="#130c24" points="180.728,-305.403 176.329,-295.358 177.02,-302.049 173.311,-298.695 173.311,-298.695 173.311,-298.695 177.02,-302.049 170.293,-302.033 180.728,-305.403 180.728,-305.403"/>
</g>
<!-- Dream -->
<g id="node13" class="node"><title>Dream</title>
<path fill="none" stroke="black" d="M234,-87.5C234,-87.5 414,-87.5 414,-87.5 420,-87.5 426,-93.5 426,-99.5 426,-99.5 426,-316.5 426,-316.5 426,-322.5 420,-328.5 414,-328.5 414,-328.5 234,-328.5 234,-328.5 228,-328.5 222,-322.5 222,-316.5 222,-316.5 222,-99.5 222,-99.5 222,-93.5 228,-87.5 234,-87.5"/>
<text text-anchor="middle" x="324" y="-313.3" font-family="Times,serif" font-size="14.00">Dream</text>
<polyline fill="none" stroke="black" points="222,-305.5 426,-305.5 "/>
<text text-anchor="start" x="230" y="-290.3" font-family="Times,serif" font-size="14.00">id :INTEGER</text>
<text text-anchor="start" x="230" y="-275.3" font-family="Times,serif" font-size="14.00">dream :text(255)</text>
<text text-anchor="start" x="230" y="-260.3" font-family="Times,serif" font-size="14.00">created_at :datetime</text>
<text text-anchor="start" x="230" y="-245.3" font-family="Times,serif" font-size="14.00">updated_at :datetime</text>
<text text-anchor="start" x="230" y="-230.3" font-family="Times,serif" font-size="14.00">user_id :integer</text>
<text text-anchor="start" x="230" y="-215.3" font-family="Times,serif" font-size="14.00">image_file_name :varchar(255)</text>
<text text-anchor="start" x="230" y="-200.3" font-family="Times,serif" font-size="14.00">image_content_type :varchar(255)</text>
<text text-anchor="start" x="230" y="-185.3" font-family="Times,serif" font-size="14.00">image_file_size :integer</text>
<text text-anchor="start" x="230" y="-170.3" font-family="Times,serif" font-size="14.00">image_updated_at :datetime</text>
<text text-anchor="start" x="230" y="-155.3" font-family="Times,serif" font-size="14.00">necesito :text(255)</text>
<text text-anchor="start" x="230" y="-140.3" font-family="Times,serif" font-size="14.00">quiero :text(255)</text>
<text text-anchor="start" x="230" y="-125.3" font-family="Times,serif" font-size="14.00">ofrezco :text(255)</text>
<text text-anchor="start" x="230" y="-110.3" font-family="Times,serif" font-size="14.00">description :text</text>
<text text-anchor="start" x="230" y="-95.3" font-family="Times,serif" font-size="14.00">select_type :varchar(255)</text>
</g>
<!-- User&#45;&gt;Dream -->
<g id="edge1" class="edge"><title>User&#45;&gt;Dream</title>
<path fill="none" stroke="#b9ced9" d="M385.53,-358.788C382.628,-351.722 379.759,-344.739 376.942,-337.88"/>
<ellipse fill="none" stroke="#b9ced9" cx="387.097" cy="-362.602" rx="4.00002" ry="4.00002"/>
<polygon fill="#b9ced9" stroke="#b9ced9" points="376.932,-337.857 377.295,-326.897 375.033,-333.232 373.133,-328.607 373.133,-328.607 373.133,-328.607 375.033,-333.232 368.97,-330.317 376.932,-337.857 376.932,-337.857"/>
</g>
<!-- Micropost -->
<g id="node15" class="node"><title>Micropost</title>
<path fill="none" stroke="black" d="M456,-117.5C456,-117.5 636,-117.5 636,-117.5 642,-117.5 648,-123.5 648,-129.5 648,-129.5 648,-286.5 648,-286.5 648,-292.5 642,-298.5 636,-298.5 636,-298.5 456,-298.5 456,-298.5 450,-298.5 444,-292.5 444,-286.5 444,-286.5 444,-129.5 444,-129.5 444,-123.5 450,-117.5 456,-117.5"/>
<text text-anchor="middle" x="546" y="-283.3" font-family="Times,serif" font-size="14.00">Micropost</text>
<polyline fill="none" stroke="black" points="444,-275.5 648,-275.5 "/>
<text text-anchor="start" x="452" y="-260.3" font-family="Times,serif" font-size="14.00">id :INTEGER</text>
<text text-anchor="start" x="452" y="-245.3" font-family="Times,serif" font-size="14.00">content :varchar(255)</text>
<text text-anchor="start" x="452" y="-230.3" font-family="Times,serif" font-size="14.00">user_id :integer</text>
<text text-anchor="start" x="452" y="-215.3" font-family="Times,serif" font-size="14.00">created_at :datetime</text>
<text text-anchor="start" x="452" y="-200.3" font-family="Times,serif" font-size="14.00">updated_at :datetime</text>
<text text-anchor="start" x="452" y="-185.3" font-family="Times,serif" font-size="14.00">large_content :varchar(255)</text>
<text text-anchor="start" x="452" y="-170.3" font-family="Times,serif" font-size="14.00">image_file_name :varchar(255)</text>
<text text-anchor="start" x="452" y="-155.3" font-family="Times,serif" font-size="14.00">image_content_type :varchar(255)</text>
<text text-anchor="start" x="452" y="-140.3" font-family="Times,serif" font-size="14.00">image_file_size :integer</text>
<text text-anchor="start" x="452" y="-125.3" font-family="Times,serif" font-size="14.00">image_updated_at :datetime</text>
</g>
<!-- User&#45;&gt;Micropost -->
<g id="edge2" class="edge"><title>User&#45;&gt;Micropost</title>
<path fill="none" stroke="#46b0d2" d="M522.243,-358.25C524.974,-341.09 527.626,-324.43 530.107,-308.843"/>
<ellipse fill="none" stroke="#46b0d2" cx="521.59" cy="-362.352" rx="4.00001" ry="4.00001"/>
<polygon fill="#46b0d2" stroke="#46b0d2" points="530.14,-308.636 536.156,-299.468 530.926,-303.698 531.712,-298.76 531.712,-298.76 531.712,-298.76 530.926,-303.698 527.268,-298.053 530.14,-308.636 530.14,-308.636"/>
</g>
<!-- Complice -->
<g id="node16" class="node"><title>Complice</title>
<path fill="none" stroke="black" d="M678.5,-132.5C678.5,-132.5 785.5,-132.5 785.5,-132.5 791.5,-132.5 797.5,-138.5 797.5,-144.5 797.5,-144.5 797.5,-271.5 797.5,-271.5 797.5,-277.5 791.5,-283.5 785.5,-283.5 785.5,-283.5 678.5,-283.5 678.5,-283.5 672.5,-283.5 666.5,-277.5 666.5,-271.5 666.5,-271.5 666.5,-144.5 666.5,-144.5 666.5,-138.5 672.5,-132.5 678.5,-132.5"/>
<text text-anchor="middle" x="732" y="-268.3" font-family="Times,serif" font-size="14.00">Complice</text>
<polyline fill="none" stroke="black" points="666.5,-260.5 797.5,-260.5 "/>
<text text-anchor="start" x="674.5" y="-245.3" font-family="Times,serif" font-size="14.00">id :INTEGER</text>
<text text-anchor="start" x="674.5" y="-230.3" font-family="Times,serif" font-size="14.00">dream_id :integer</text>
<text text-anchor="start" x="674.5" y="-215.3" font-family="Times,serif" font-size="14.00">tags :varchar(255)</text>
<text text-anchor="start" x="674.5" y="-200.3" font-family="Times,serif" font-size="14.00">reason :text</text>
<text text-anchor="start" x="674.5" y="-185.3" font-family="Times,serif" font-size="14.00">giving :text</text>
<text text-anchor="start" x="674.5" y="-170.3" font-family="Times,serif" font-size="14.00">created_at :datetime</text>
<text text-anchor="start" x="674.5" y="-155.3" font-family="Times,serif" font-size="14.00">updated_at :datetime</text>
<text text-anchor="start" x="674.5" y="-140.3" font-family="Times,serif" font-size="14.00">user_id :integer</text>
</g>
<!-- User&#45;&gt;Complice -->
<g id="edge4" class="edge"><title>User&#45;&gt;Complice</title>
<path fill="none" stroke="#68ae53" d="M596.367,-370.145C597.568,-368.749 598.779,-367.367 600,-366 620.117,-343.472 635.828,-350.539 657,-329 667.737,-318.077 677.692,-305.358 686.61,-292.364"/>
<ellipse fill="none" stroke="#68ae53" cx="593.729" cy="-373.292" rx="4.00002" ry="4.00002"/>
<polygon fill="#68ae53" stroke="#68ae53" points="686.771,-292.123 696.063,-286.298 689.545,-287.962 692.318,-283.802 692.318,-283.802 692.318,-283.802 689.545,-287.962 688.574,-281.306 686.771,-292.123 686.771,-292.123"/>
</g>
<!-- Canva -->
<g id="node3" class="node"><title>Canva</title>
<path fill="none" stroke="black" d="M621,-494C621,-494 749,-494 749,-494 755,-494 761,-500 761,-506 761,-506 761,-693 761,-693 761,-699 755,-705 749,-705 749,-705 621,-705 621,-705 615,-705 609,-699 609,-693 609,-693 609,-506 609,-506 609,-500 615,-494 621,-494"/>
<text text-anchor="middle" x="685" y="-689.8" font-family="Times,serif" font-size="14.00">Canva</text>
<polyline fill="none" stroke="black" points="609,-682 761,-682 "/>
<text text-anchor="start" x="617" y="-666.8" font-family="Times,serif" font-size="14.00">id :INTEGER</text>
<text text-anchor="start" x="617" y="-651.8" font-family="Times,serif" font-size="14.00">cliente1 :varchar(255)</text>
<text text-anchor="start" x="617" y="-636.8" font-family="Times,serif" font-size="14.00">canal1 :varchar(255)</text>
<text text-anchor="start" x="617" y="-621.8" font-family="Times,serif" font-size="14.00">problema1 :varchar(255)</text>
<text text-anchor="start" x="617" y="-606.8" font-family="Times,serif" font-size="14.00">cliente2 :varchar(255)</text>
<text text-anchor="start" x="617" y="-591.8" font-family="Times,serif" font-size="14.00">canal2 :varchar(255)</text>
<text text-anchor="start" x="617" y="-576.8" font-family="Times,serif" font-size="14.00">problema2 :varchar(255)</text>
<text text-anchor="start" x="617" y="-561.8" font-family="Times,serif" font-size="14.00">cliente3 :varchar(255)</text>
<text text-anchor="start" x="617" y="-546.8" font-family="Times,serif" font-size="14.00">canal3 :varchar(255)</text>
<text text-anchor="start" x="617" y="-531.8" font-family="Times,serif" font-size="14.00">problema3 :varchar(255)</text>
<text text-anchor="start" x="617" y="-516.8" font-family="Times,serif" font-size="14.00">created_at :datetime</text>
<text text-anchor="start" x="617" y="-501.8" font-family="Times,serif" font-size="14.00">updated_at :datetime</text>
</g>
<!-- Merit::RankRules -->
<g id="node4" class="node"><title>Merit::RankRules</title>
<polygon fill="none" stroke="black" points="779,-576.5 779,-622.5 893,-622.5 893,-576.5 779,-576.5"/>
<text text-anchor="middle" x="836" y="-607.3" font-family="Times,serif" font-size="14.00">Merit::RankRules</text>
<polyline fill="none" stroke="black" points="779,-599.5 893,-599.5 "/>
<text text-anchor="middle" x="836" y="-584.3" font-family="Times,serif" font-size="14.00"> </text>
</g>
<!-- Merit::BadgeRules -->
<g id="node5" class="node"><title>Merit::BadgeRules</title>
<polygon fill="none" stroke="black" points="911,-576.5 911,-622.5 1031,-622.5 1031,-576.5 911,-576.5"/>
<text text-anchor="middle" x="971" y="-607.3" font-family="Times,serif" font-size="14.00">Merit::BadgeRules</text>
<polyline fill="none" stroke="black" points="911,-599.5 1031,-599.5 "/>
<text text-anchor="middle" x="971" y="-584.3" font-family="Times,serif" font-size="14.00"> </text>
</g>
<!-- Merit::PointRules -->
<g id="node6" class="node"><title>Merit::PointRules</title>
<polygon fill="none" stroke="black" points="1049,-576.5 1049,-622.5 1163,-622.5 1163,-576.5 1049,-576.5"/>
<text text-anchor="middle" x="1106" y="-607.3" font-family="Times,serif" font-size="14.00">Merit::PointRules</text>
<polyline fill="none" stroke="black" points="1049,-599.5 1163,-599.5 "/>
<text text-anchor="middle" x="1106" y="-584.3" font-family="Times,serif" font-size="14.00"> </text>
</g>
<!-- CanvasFinancieroIngreso -->
<g id="node7" class="node"><title>CanvasFinancieroIngreso</title>
<path fill="none" stroke="black" d="M1193.5,-539C1193.5,-539 1356.5,-539 1356.5,-539 1362.5,-539 1368.5,-545 1368.5,-551 1368.5,-551 1368.5,-648 1368.5,-648 1368.5,-654 1362.5,-660 1356.5,-660 1356.5,-660 1193.5,-660 1193.5,-660 1187.5,-660 1181.5,-654 1181.5,-648 1181.5,-648 1181.5,-551 1181.5,-551 1181.5,-545 1187.5,-539 1193.5,-539"/>
<text text-anchor="middle" x="1275" y="-644.8" font-family="Times,serif" font-size="14.00">CanvasFinancieroIngreso</text>
<polyline fill="none" stroke="black" points="1181.5,-637 1368.5,-637 "/>
<text text-anchor="start" x="1189.5" y="-621.8" font-family="Times,serif" font-size="14.00">id :INTEGER</text>
<text text-anchor="start" x="1189.5" y="-606.8" font-family="Times,serif" font-size="14.00">valor_venta_producto1 :integer</text>
<text text-anchor="start" x="1189.5" y="-591.8" font-family="Times,serif" font-size="14.00">valor_venta_producto2 :integer</text>
<text text-anchor="start" x="1189.5" y="-576.8" font-family="Times,serif" font-size="14.00">valor_venta_producto3 :integer</text>
<text text-anchor="start" x="1189.5" y="-561.8" font-family="Times,serif" font-size="14.00">created_at :datetime</text>
<text text-anchor="start" x="1189.5" y="-546.8" font-family="Times,serif" font-size="14.00">updated_at :datetime</text>
</g>
<!-- Etapa -->
<g id="node9" class="node"><title>Etapa</title>
<path fill="none" stroke="black" d="M1398.5,-516.5C1398.5,-516.5 1505.5,-516.5 1505.5,-516.5 1511.5,-516.5 1517.5,-522.5 1517.5,-528.5 1517.5,-528.5 1517.5,-670.5 1517.5,-670.5 1517.5,-676.5 1511.5,-682.5 1505.5,-682.5 1505.5,-682.5 1398.5,-682.5 1398.5,-682.5 1392.5,-682.5 1386.5,-676.5 1386.5,-670.5 1386.5,-670.5 1386.5,-528.5 1386.5,-528.5 1386.5,-522.5 1392.5,-516.5 1398.5,-516.5"/>
<text text-anchor="middle" x="1452" y="-667.3" font-family="Times,serif" font-size="14.00">Etapa</text>
<polyline fill="none" stroke="black" points="1386.5,-659.5 1517.5,-659.5 "/>
<text text-anchor="start" x="1394.5" y="-644.3" font-family="Times,serif" font-size="14.00">id :INTEGER</text>
<text text-anchor="start" x="1394.5" y="-629.3" font-family="Times,serif" font-size="14.00">etapa1 :varchar(255)</text>
<text text-anchor="start" x="1394.5" y="-614.3" font-family="Times,serif" font-size="14.00">indicador1 :integer</text>
<text text-anchor="start" x="1394.5" y="-599.3" font-family="Times,serif" font-size="14.00">etapa2 :varchar(255)</text>
<text text-anchor="start" x="1394.5" y="-584.3" font-family="Times,serif" font-size="14.00">indicador2 :integer</text>
<text text-anchor="start" x="1394.5" y="-569.3" font-family="Times,serif" font-size="14.00">etapa3 :varchar(255)</text>
<text text-anchor="start" x="1394.5" y="-554.3" font-family="Times,serif" font-size="14.00">indicador3 :integer</text>
<text text-anchor="start" x="1394.5" y="-539.3" font-family="Times,serif" font-size="14.00">created_at :datetime</text>
<text text-anchor="start" x="1394.5" y="-524.3" font-family="Times,serif" font-size="14.00">updated_at :datetime</text>
</g>
<!-- CanvasLadoDerecho -->
<g id="node10" class="node"><title>CanvasLadoDerecho</title>
<path fill="none" stroke="black" d="M1548,-486.5C1548,-486.5 1766,-486.5 1766,-486.5 1772,-486.5 1778,-492.5 1778,-498.5 1778,-498.5 1778,-700.5 1778,-700.5 1778,-706.5 1772,-712.5 1766,-712.5 1766,-712.5 1548,-712.5 1548,-712.5 1542,-712.5 1536,-706.5 1536,-700.5 1536,-700.5 1536,-498.5 1536,-498.5 1536,-492.5 1542,-486.5 1548,-486.5"/>
<text text-anchor="middle" x="1657" y="-697.3" font-family="Times,serif" font-size="14.00">CanvasLadoDerecho</text>
<polyline fill="none" stroke="black" points="1536,-689.5 1778,-689.5 "/>
<text text-anchor="start" x="1544" y="-674.3" font-family="Times,serif" font-size="14.00">id :INTEGER</text>
<text text-anchor="start" x="1544" y="-659.3" font-family="Times,serif" font-size="14.00">propuesta_de_valor :varchar(255)</text>
<text text-anchor="start" x="1544" y="-644.3" font-family="Times,serif" font-size="14.00">tratamiento_con_el_cliente :varchar(255)</text>
<text text-anchor="start" x="1544" y="-629.3" font-family="Times,serif" font-size="14.00">canales :varchar(255)</text>
<text text-anchor="start" x="1544" y="-614.3" font-family="Times,serif" font-size="14.00">segmento_cliente1 :varchar(255)</text>
<text text-anchor="start" x="1544" y="-599.3" font-family="Times,serif" font-size="14.00">segmento_cliente22 :varchar(255)</text>
<text text-anchor="start" x="1544" y="-584.3" font-family="Times,serif" font-size="14.00">segmento_cliente3 :varchar(255)</text>
<text text-anchor="start" x="1544" y="-569.3" font-family="Times,serif" font-size="14.00">stakeholder1 :varchar(255)</text>
<text text-anchor="start" x="1544" y="-554.3" font-family="Times,serif" font-size="14.00">stakeholder2 :varchar(255)</text>
<text text-anchor="start" x="1544" y="-539.3" font-family="Times,serif" font-size="14.00">stakeholder3 :varchar(255)</text>
<text text-anchor="start" x="1544" y="-524.3" font-family="Times,serif" font-size="14.00">indicador_clave :varchar(255)</text>
<text text-anchor="start" x="1544" y="-509.3" font-family="Times,serif" font-size="14.00">created_at :datetime</text>
<text text-anchor="start" x="1544" y="-494.3" font-family="Times,serif" font-size="14.00">updated_at :datetime</text>
</g>
<!-- Wiki -->
<g id="node11" class="node"><title>Wiki</title>
<path fill="none" stroke="black" d="M1808.5,-531.5C1808.5,-531.5 1915.5,-531.5 1915.5,-531.5 1921.5,-531.5 1927.5,-537.5 1927.5,-543.5 1927.5,-543.5 1927.5,-655.5 1927.5,-655.5 1927.5,-661.5 1921.5,-667.5 1915.5,-667.5 1915.5,-667.5 1808.5,-667.5 1808.5,-667.5 1802.5,-667.5 1796.5,-661.5 1796.5,-655.5 1796.5,-655.5 1796.5,-543.5 1796.5,-543.5 1796.5,-537.5 1802.5,-531.5 1808.5,-531.5"/>
<text text-anchor="middle" x="1862" y="-652.3" font-family="Times,serif" font-size="14.00">Wiki</text>
<polyline fill="none" stroke="black" points="1796.5,-644.5 1927.5,-644.5 "/>
<text text-anchor="start" x="1804.5" y="-629.3" font-family="Times,serif" font-size="14.00">id :INTEGER</text>
<text text-anchor="start" x="1804.5" y="-614.3" font-family="Times,serif" font-size="14.00">title :varchar(255)</text>
<text text-anchor="start" x="1804.5" y="-599.3" font-family="Times,serif" font-size="14.00">abstract :text</text>
<text text-anchor="start" x="1804.5" y="-584.3" font-family="Times,serif" font-size="14.00">content :text</text>
<text text-anchor="start" x="1804.5" y="-569.3" font-family="Times,serif" font-size="14.00">tags :varchar(255)</text>
<text text-anchor="start" x="1804.5" y="-554.3" font-family="Times,serif" font-size="14.00">created_at :datetime</text>
<text text-anchor="start" x="1804.5" y="-539.3" font-family="Times,serif" font-size="14.00">updated_at :datetime</text>
</g>
<!-- Admin -->
<g id="node12" class="node"><title>Admin</title>
<path fill="none" stroke="black" d="M1958,-486.5C1958,-486.5 2148,-486.5 2148,-486.5 2154,-486.5 2160,-492.5 2160,-498.5 2160,-498.5 2160,-700.5 2160,-700.5 2160,-706.5 2154,-712.5 2148,-712.5 2148,-712.5 1958,-712.5 1958,-712.5 1952,-712.5 1946,-706.5 1946,-700.5 1946,-700.5 1946,-498.5 1946,-498.5 1946,-492.5 1952,-486.5 1958,-486.5"/>
<text text-anchor="middle" x="2053" y="-697.3" font-family="Times,serif" font-size="14.00">Admin</text>
<polyline fill="none" stroke="black" points="1946,-689.5 2160,-689.5 "/>
<text text-anchor="start" x="1954" y="-674.3" font-family="Times,serif" font-size="14.00">id :INTEGER</text>
<text text-anchor="start" x="1954" y="-659.3" font-family="Times,serif" font-size="14.00">email :varchar(255)</text>
<text text-anchor="start" x="1954" y="-644.3" font-family="Times,serif" font-size="14.00">encrypted_password :varchar(255)</text>
<text text-anchor="start" x="1954" y="-629.3" font-family="Times,serif" font-size="14.00">reset_password_token :varchar(255)</text>
<text text-anchor="start" x="1954" y="-614.3" font-family="Times,serif" font-size="14.00">reset_password_sent_at :datetime</text>
<text text-anchor="start" x="1954" y="-599.3" font-family="Times,serif" font-size="14.00">remember_created_at :datetime</text>
<text text-anchor="start" x="1954" y="-584.3" font-family="Times,serif" font-size="14.00">sign_in_count :integer</text>
<text text-anchor="start" x="1954" y="-569.3" font-family="Times,serif" font-size="14.00">current_sign_in_at :datetime</text>
<text text-anchor="start" x="1954" y="-554.3" font-family="Times,serif" font-size="14.00">last_sign_in_at :datetime</text>
<text text-anchor="start" x="1954" y="-539.3" font-family="Times,serif" font-size="14.00">current_sign_in_ip :varchar(255)</text>
<text text-anchor="start" x="1954" y="-524.3" font-family="Times,serif" font-size="14.00">last_sign_in_ip :varchar(255)</text>
<text text-anchor="start" x="1954" y="-509.3" font-family="Times,serif" font-size="14.00">created_at :datetime</text>
<text text-anchor="start" x="1954" y="-494.3" font-family="Times,serif" font-size="14.00">updated_at :datetime</text>
</g>
<!-- ActsAsTaggableOn::Tagging -->
<g id="node20" class="node"><title>ActsAsTaggableOn::Tagging</title>
<ellipse fill="none" stroke="black" cx="173" cy="-18" rx="114.28" ry="18"/>
<text text-anchor="middle" x="173" y="-14.3" font-family="Times,serif" font-size="14.00">ActsAsTaggableOn::Tagging</text>
</g>
<!-- Dream&#45;&gt;ActsAsTaggableOn::Tagging -->
<g id="edge5" class="edge"><title>Dream&#45;&gt;ActsAsTaggableOn::Tagging</title>
<path fill="none" stroke="#9f3b4d" d="M214.962,-88.0771C214.309,-87.7128 213.656,-87.3537 213,-87 170.173,-63.8949 136.454,-106.13 105,-69 95.4307,-57.7038 104.006,-47.5362 117.894,-39.3658"/>
<ellipse fill="none" stroke="#9f3b4d" cx="218.436" cy="-90.1346" rx="4.00002" ry="4.00002"/>
<polygon fill="#9f3b4d" stroke="#9f3b4d" points="118.252,-39.1787 129.198,-38.5321 122.682,-36.8616 127.113,-34.5444 127.113,-34.5444 127.113,-34.5444 122.682,-36.8616 125.028,-30.5568 118.252,-39.1787 118.252,-39.1787"/>
<text text-anchor="middle" x="128" y="-57.8" font-family="Times,serif" font-size="14.00">taggings</text>
</g>
<!-- Dream&#45;&gt;ActsAsTaggableOn::Tagging -->
<g id="edge7" class="edge"><title>Dream&#45;&gt;ActsAsTaggableOn::Tagging</title>
<path fill="none" stroke="#e5ca85" d="M215.514,-88.8507C214.678,-88.2269 213.839,-87.6099 213,-87 197.556,-75.7781 184.449,-84.9769 174,-69 169.638,-62.3309 168.276,-54.017 168.322,-46.0949"/>
<ellipse fill="none" stroke="#e5ca85" cx="218.726" cy="-91.3207" rx="4.00002" ry="4.00002"/>
<polygon fill="#e5ca85" stroke="#e5ca85" points="168.325,-46.0504 173.549,-36.4087 168.693,-41.0639 169.061,-36.0775 169.061,-36.0775 169.061,-36.0775 168.693,-41.0639 164.574,-35.7463 168.325,-46.0504 168.325,-46.0504"/>
<text text-anchor="middle" x="209" y="-57.8" font-family="Times,serif" font-size="14.00">tag_taggings</text>
</g>
<!-- Dream&#45;&gt;ActsAsTaggableOn::Tagging -->
<g id="edge9" class="edge"><title>Dream&#45;&gt;ActsAsTaggableOn::Tagging</title>
<path fill="none" stroke="#4a9575" d="M266.595,-80.5654C259.716,-71.0128 252.19,-61.9971 244,-54 238.4,-48.5317 231.778,-43.7643 224.865,-39.6564"/>
<ellipse fill="none" stroke="#4a9575" cx="268.969" cy="-83.9755" rx="4.00002" ry="4.00002"/>
<polygon fill="#4a9575" stroke="#4a9575" points="224.778,-39.6089 218.172,-30.8566 220.394,-37.2058 216.009,-34.8028 216.009,-34.8028 216.009,-34.8028 220.394,-37.2058 213.846,-38.749 224.778,-39.6089 224.778,-39.6089"/>
<text text-anchor="middle" x="303.5" y="-57.8" font-family="Times,serif" font-size="14.00">tag_list_taggings</text>
</g>
<!-- ActsAsTaggableOn::Tag -->
<g id="node21" class="node"><title>ActsAsTaggableOn::Tag</title>
<ellipse fill="none" stroke="black" cx="458" cy="-18" rx="98.5829" ry="18"/>
<text text-anchor="middle" x="458" y="-14.3" font-family="Times,serif" font-size="14.00">ActsAsTaggableOn::Tag</text>
</g>
<!-- Dream&#45;&gt;ActsAsTaggableOn::Tag -->
<g id="edge6" class="edge"><title>Dream&#45;&gt;ActsAsTaggableOn::Tag</title>
<path fill="none" stroke="#c0e7cd" d="M364.675,-78.2663C370.07,-69.5512 376.151,-61.3352 383,-54 388.516,-48.0922 395.229,-43.0909 402.346,-38.8828"/>
<polygon fill="#c0e7cd" stroke="#c0e7cd" points="364.542,-78.4947 355.618,-84.8674 362.023,-82.8143 359.505,-87.1338 359.505,-87.1338 359.505,-87.1338 362.023,-82.8143 363.393,-89.4003 364.542,-78.4947 364.542,-78.4947"/>
<polygon fill="#c0e7cd" stroke="#c0e7cd" points="402.704,-38.6911 413.644,-37.9349 407.111,-36.3297 411.519,-33.9684 411.519,-33.9684 411.519,-33.9684 407.111,-36.3297 409.393,-30.0018 402.704,-38.6911 402.704,-38.6911"/>
<text text-anchor="middle" x="409.5" y="-57.8" font-family="Times,serif" font-size="14.00">base_tags</text>
</g>
<!-- Dream&#45;&gt;ActsAsTaggableOn::Tag -->
<g id="edge8" class="edge"><title>Dream&#45;&gt;ActsAsTaggableOn::Tag</title>
<path fill="none" stroke="#110889" d="M429.914,-78.6672C432.003,-75.4429 434.035,-72.2179 436,-69 440.448,-61.7151 444.487,-53.3726 447.856,-45.6165"/>
<polygon fill="#110889" stroke="#110889" points="429.786,-78.8603 420.509,-84.7077 427.023,-83.0274 424.26,-87.1945 424.26,-87.1945 424.26,-87.1945 427.023,-83.0274 428.01,-89.6814 429.786,-78.8603 429.786,-78.8603"/>
<polygon fill="#110889" stroke="#110889" points="447.917,-45.4683 455.902,-37.9516 449.831,-40.8489 451.744,-36.2295 451.744,-36.2295 451.744,-36.2295 449.831,-40.8489 447.587,-34.5073 447.917,-45.4683 447.917,-45.4683"/>
<text text-anchor="middle" x="455" y="-57.8" font-family="Times,serif" font-size="14.00">tags</text>
</g>
<!-- Dream&#45;&gt;ActsAsTaggableOn::Tag -->
<g id="edge10" class="edge"><title>Dream&#45;&gt;ActsAsTaggableOn::Tag</title>
<path fill="none" stroke="#7e855c" d="M434.174,-87.6299C434.449,-87.4192 434.725,-87.2092 435,-87 448.929,-76.4185 460.889,-83.9317 470,-69 474.25,-62.0345 473.936,-53.6687 471.774,-45.7906"/>
<polygon fill="#7e855c" stroke="#7e855c" points="434.065,-87.7163 423.434,-90.4035 430.147,-90.8229 426.23,-93.9295 426.23,-93.9295 426.23,-93.9295 430.147,-90.8229 429.025,-97.4555 434.065,-87.7163 434.065,-87.7163"/>
<polygon fill="#7e855c" stroke="#7e855c" points="471.704,-45.6002 472.476,-34.6615 469.978,-40.9074 468.253,-36.2146 468.253,-36.2146 468.253,-36.2146 469.978,-40.9074 464.029,-37.7678 471.704,-45.6002 471.704,-45.6002"/>
<text text-anchor="middle" x="494" y="-57.8" font-family="Times,serif" font-size="14.00">tag_list</text>
</g>
<!-- Pedido -->
<g id="node14" class="node"><title>Pedido</title>
<path fill="none" stroke="black" d="M2190,-501.5C2190,-501.5 2384,-501.5 2384,-501.5 2390,-501.5 2396,-507.5 2396,-513.5 2396,-513.5 2396,-685.5 2396,-685.5 2396,-691.5 2390,-697.5 2384,-697.5 2384,-697.5 2190,-697.5 2190,-697.5 2184,-697.5 2178,-691.5 2178,-685.5 2178,-685.5 2178,-513.5 2178,-513.5 2178,-507.5 2184,-501.5 2190,-501.5"/>
<text text-anchor="middle" x="2287" y="-682.3" font-family="Times,serif" font-size="14.00">Pedido</text>
<polyline fill="none" stroke="black" points="2178,-674.5 2396,-674.5 "/>
<text text-anchor="start" x="2186" y="-659.3" font-family="Times,serif" font-size="14.00">id :INTEGER</text>
<text text-anchor="start" x="2186" y="-644.3" font-family="Times,serif" font-size="14.00">Nombre :varchar(255)</text>
<text text-anchor="start" x="2186" y="-629.3" font-family="Times,serif" font-size="14.00">Razon_social :varchar(255)</text>
<text text-anchor="start" x="2186" y="-614.3" font-family="Times,serif" font-size="14.00">Nit :integer</text>
<text text-anchor="start" x="2186" y="-599.3" font-family="Times,serif" font-size="14.00">Direccion :varchar(255)</text>
<text text-anchor="start" x="2186" y="-584.3" font-family="Times,serif" font-size="14.00">Telefono :integer</text>
<text text-anchor="start" x="2186" y="-569.3" font-family="Times,serif" font-size="14.00">Nombre_representante :varchar(255)</text>
<text text-anchor="start" x="2186" y="-554.3" font-family="Times,serif" font-size="14.00">Persona_contacto :varchar(255)</text>
<text text-anchor="start" x="2186" y="-539.3" font-family="Times,serif" font-size="14.00">Pedido :text</text>
<text text-anchor="start" x="2186" y="-524.3" font-family="Times,serif" font-size="14.00">created_at :datetime</text>
<text text-anchor="start" x="2186" y="-509.3" font-family="Times,serif" font-size="14.00">updated_at :datetime</text>
</g>
<!-- CanvasLadoIzquierdo -->
<g id="node17" class="node"><title>CanvasLadoIzquierdo</title>
<path fill="none" stroke="black" d="M2426,-471.5C2426,-471.5 2594,-471.5 2594,-471.5 2600,-471.5 2606,-477.5 2606,-483.5 2606,-483.5 2606,-715.5 2606,-715.5 2606,-721.5 2600,-727.5 2594,-727.5 2594,-727.5 2426,-727.5 2426,-727.5 2420,-727.5 2414,-721.5 2414,-715.5 2414,-715.5 2414,-483.5 2414,-483.5 2414,-477.5 2420,-471.5 2426,-471.5"/>
<text text-anchor="middle" x="2510" y="-712.3" font-family="Times,serif" font-size="14.00">CanvasLadoIzquierdo</text>
<polyline fill="none" stroke="black" points="2414,-704.5 2606,-704.5 "/>
<text text-anchor="start" x="2422" y="-689.3" font-family="Times,serif" font-size="14.00">id :INTEGER</text>
<text text-anchor="start" x="2422" y="-674.3" font-family="Times,serif" font-size="14.00">sector :varchar(255)</text>
<text text-anchor="start" x="2422" y="-659.3" font-family="Times,serif" font-size="14.00">problema_general :varchar(255)</text>
<text text-anchor="start" x="2422" y="-644.3" font-family="Times,serif" font-size="14.00">solucion :varchar(255)</text>
<text text-anchor="start" x="2422" y="-629.3" font-family="Times,serif" font-size="14.00">producto1 :varchar(255)</text>
<text text-anchor="start" x="2422" y="-614.3" font-family="Times,serif" font-size="14.00">producto2 :varchar(255)</text>
<text text-anchor="start" x="2422" y="-599.3" font-family="Times,serif" font-size="14.00">producto3 :varchar(255)</text>
<text text-anchor="start" x="2422" y="-584.3" font-family="Times,serif" font-size="14.00">actividad_clave1 :varchar(255)</text>
<text text-anchor="start" x="2422" y="-569.3" font-family="Times,serif" font-size="14.00">actividad_clave2 :varchar(255)</text>
<text text-anchor="start" x="2422" y="-554.3" font-family="Times,serif" font-size="14.00">actividad_clave3 :varchar(255)</text>
<text text-anchor="start" x="2422" y="-539.3" font-family="Times,serif" font-size="14.00">recurso_clave1 :varchar(255)</text>
<text text-anchor="start" x="2422" y="-524.3" font-family="Times,serif" font-size="14.00">recurso_clave2 :varchar(255)</text>
<text text-anchor="start" x="2422" y="-509.3" font-family="Times,serif" font-size="14.00">recurso_clave3 :varchar(255)</text>
<text text-anchor="start" x="2422" y="-494.3" font-family="Times,serif" font-size="14.00">created_at :datetime</text>
<text text-anchor="start" x="2422" y="-479.3" font-family="Times,serif" font-size="14.00">updated_at :datetime</text>
</g>
<!-- CanvasFinancieroCosto -->
<g id="node18" class="node"><title>CanvasFinancieroCosto</title>
<path fill="none" stroke="black" d="M2636,-531.5C2636,-531.5 2802,-531.5 2802,-531.5 2808,-531.5 2814,-537.5 2814,-543.5 2814,-543.5 2814,-655.5 2814,-655.5 2814,-661.5 2808,-667.5 2802,-667.5 2802,-667.5 2636,-667.5 2636,-667.5 2630,-667.5 2624,-661.5 2624,-655.5 2624,-655.5 2624,-543.5 2624,-543.5 2624,-537.5 2630,-531.5 2636,-531.5"/>
<text text-anchor="middle" x="2719" y="-652.3" font-family="Times,serif" font-size="14.00">CanvasFinancieroCosto</text>
<polyline fill="none" stroke="black" points="2624,-644.5 2814,-644.5 "/>
<text text-anchor="start" x="2632" y="-629.3" font-family="Times,serif" font-size="14.00">id :INTEGER</text>
<text text-anchor="start" x="2632" y="-614.3" font-family="Times,serif" font-size="14.00">personal :integer</text>
<text text-anchor="start" x="2632" y="-599.3" font-family="Times,serif" font-size="14.00">alquiler :integer</text>
<text text-anchor="start" x="2632" y="-584.3" font-family="Times,serif" font-size="14.00">costo_produccion :integer</text>
<text text-anchor="start" x="2632" y="-569.3" font-family="Times,serif" font-size="14.00">costo_comercializacion :integer</text>
<text text-anchor="start" x="2632" y="-554.3" font-family="Times,serif" font-size="14.00">created_at :datetime</text>
<text text-anchor="start" x="2632" y="-539.3" font-family="Times,serif" font-size="14.00">updated_at :datetime</text>
</g>
<!-- Producto -->
<g id="node19" class="node"><title>Producto</title>
<path fill="none" stroke="black" d="M2844.5,-546.5C2844.5,-546.5 2963.5,-546.5 2963.5,-546.5 2969.5,-546.5 2975.5,-552.5 2975.5,-558.5 2975.5,-558.5 2975.5,-640.5 2975.5,-640.5 2975.5,-646.5 2969.5,-652.5 2963.5,-652.5 2963.5,-652.5 2844.5,-652.5 2844.5,-652.5 2838.5,-652.5 2832.5,-646.5 2832.5,-640.5 2832.5,-640.5 2832.5,-558.5 2832.5,-558.5 2832.5,-552.5 2838.5,-546.5 2844.5,-546.5"/>
<text text-anchor="middle" x="2904" y="-637.3" font-family="Times,serif" font-size="14.00">Producto</text>
<polyline fill="none" stroke="black" points="2832.5,-629.5 2975.5,-629.5 "/>
<text text-anchor="start" x="2840.5" y="-614.3" font-family="Times,serif" font-size="14.00">id :INTEGER</text>
<text text-anchor="start" x="2840.5" y="-599.3" font-family="Times,serif" font-size="14.00">Producto :varchar(255)</text>
<text text-anchor="start" x="2840.5" y="-584.3" font-family="Times,serif" font-size="14.00">Unidades :integer</text>
<text text-anchor="start" x="2840.5" y="-569.3" font-family="Times,serif" font-size="14.00">created_at :datetime</text>
<text text-anchor="start" x="2840.5" y="-554.3" font-family="Times,serif" font-size="14.00">updated_at :datetime</text>
</g>
</g>
</svg>
