<?xml version="1.0" encoding="UTF-8" standalone="no"?>
<!DOCTYPE svg PUBLIC "-//W3C//DTD SVG 1.1//EN"
 "http://www.w3.org/Graphics/SVG/1.1/DTD/svg11.dtd">
<!-- Generated by graphviz version 2.38.0 (20140413.2041)
 -->
<!-- Title: models_diagram Pages: 1 -->
<svg width="2099pt" height="246pt"
 viewBox="0.00 0.00 2098.64 246.00" xmlns="http://www.w3.org/2000/svg" xmlns:xlink="http://www.w3.org/1999/xlink">
<g id="graph0" class="graph" transform="scale(1 1) rotate(0) translate(4 242)">
<title>models_diagram</title>
<polygon fill="none" stroke="none" points="-4,4 -4,-242 2094.64,-242 2094.64,4 -4,4"/>
<!-- _diagram_info -->
<g id="node1" class="node"><title>_diagram_info</title>
<text text-anchor="start" x="84.3899" y="-223.6" font-family="Times,serif" font-size="13.00">Models diagram</text>
<text text-anchor="start" x="84.3899" y="-209.6" font-family="Times,serif" font-size="13.00">Date: Oct 20 2015 &#45; 21:12</text>
<text text-anchor="start" x="84.3899" y="-195.6" font-family="Times,serif" font-size="13.00">Migration version: 20150925232222</text>
<text text-anchor="start" x="84.3899" y="-181.6" font-family="Times,serif" font-size="13.00">Generated by RailRoady 1.4.0</text>
<text text-anchor="start" x="84.3899" y="-167.6" font-family="Times,serif" font-size="13.00">http://railroady.prestonlee.com</text>
</g>
<!-- User -->
<g id="node2" class="node"><title>User</title>
<ellipse fill="none" stroke="black" cx="335.39" cy="-199" rx="27.0966" ry="18"/>
<text text-anchor="middle" x="335.39" y="-195.3" font-family="Times,serif" font-size="14.00">User</text>
</g>
<!-- Solution -->
<g id="node8" class="node"><title>Solution</title>
<ellipse fill="none" stroke="black" cx="172.39" cy="-105" rx="40.0939" ry="18"/>
<text text-anchor="middle" x="172.39" y="-101.3" font-family="Times,serif" font-size="14.00">Solution</text>
</g>
<!-- User&#45;&gt;Solution -->
<g id="edge3" class="edge"><title>User&#45;&gt;Solution</title>
<path fill="none" stroke="#637133" d="M317.735,-176.304C312.282,-170.496 305.967,-164.57 299.39,-160 284.59,-149.717 243.328,-132.872 211.815,-120.728"/>
<ellipse fill="none" stroke="#637133" cx="320.615" cy="-179.513" rx="4.00002" ry="4.00002"/>
<polygon fill="#637133" stroke="#637133" points="211.728,-120.695 203.995,-112.919 207.058,-118.909 202.388,-117.123 202.388,-117.123 202.388,-117.123 207.058,-118.909 200.78,-121.326 211.728,-120.695 211.728,-120.695"/>
</g>
<!-- Dream -->
<g id="node13" class="node"><title>Dream</title>
<ellipse fill="none" stroke="black" cx="265.39" cy="-105" rx="35.194" ry="18"/>
<text text-anchor="middle" x="265.39" y="-101.3" font-family="Times,serif" font-size="14.00">Dream</text>
</g>
<!-- User&#45;&gt;Dream -->
<g id="edge1" class="edge"><title>User&#45;&gt;Dream</title>
<path fill="none" stroke="#da2d2b" d="M318.397,-175.666C307.942,-161.925 294.541,-144.313 283.829,-130.235"/>
<ellipse fill="none" stroke="#da2d2b" cx="321.093" cy="-179.21" rx="4.00002" ry="4.00002"/>
<polygon fill="#da2d2b" stroke="#da2d2b" points="283.613,-129.951 281.139,-119.267 280.586,-125.971 277.558,-121.992 277.558,-121.992 277.558,-121.992 280.586,-125.971 273.977,-124.717 283.613,-129.951 283.613,-129.951"/>
</g>
<!-- Micropost -->
<g id="node15" class="node"><title>Micropost</title>
<ellipse fill="none" stroke="black" cx="366.39" cy="-105" rx="47.3916" ry="18"/>
<text text-anchor="middle" x="366.39" y="-101.3" font-family="Times,serif" font-size="14.00">Micropost</text>
</g>
<!-- User&#45;&gt;Micropost -->
<g id="edge2" class="edge"><title>User&#45;&gt;Micropost</title>
<path fill="none" stroke="#7c0df2" d="M343.721,-173.274C347.943,-160.747 353.073,-145.52 357.385,-132.723"/>
<ellipse fill="none" stroke="#7c0df2" cx="342.353" cy="-177.335" rx="4.00001" ry="4.00001"/>
<polygon fill="#7c0df2" stroke="#7c0df2" points="357.442,-132.555 364.899,-124.516 359.038,-127.817 360.635,-123.079 360.635,-123.079 360.635,-123.079 359.038,-127.817 356.371,-121.642 357.442,-132.555 357.442,-132.555"/>
</g>
<!-- Complice -->
<g id="node16" class="node"><title>Complice</title>
<ellipse fill="none" stroke="black" cx="477.39" cy="-105" rx="45.4919" ry="18"/>
<text text-anchor="middle" x="477.39" y="-101.3" font-family="Times,serif" font-size="14.00">Complice</text>
</g>
<!-- User&#45;&gt;Complice -->
<g id="edge4" class="edge"><title>User&#45;&gt;Complice</title>
<path fill="none" stroke="#da4173" d="M353.253,-176.594C358.71,-170.791 364.975,-164.794 371.39,-160 391.618,-144.883 416.705,-131.887 437.395,-122.435"/>
<ellipse fill="none" stroke="#da4173" cx="350.364" cy="-179.783" rx="4.00002" ry="4.00002"/>
<polygon fill="#da4173" stroke="#da4173" points="437.426,-122.422 448.392,-122.457 441.992,-120.384 446.558,-118.347 446.558,-118.347 446.558,-118.347 441.992,-120.384 444.725,-114.238 437.426,-122.422 437.426,-122.422"/>
</g>
<!-- Canva -->
<g id="node3" class="node"><title>Canva</title>
<ellipse fill="none" stroke="black" cx="413.39" cy="-199" rx="33.2948" ry="18"/>
<text text-anchor="middle" x="413.39" y="-195.3" font-family="Times,serif" font-size="14.00">Canva</text>
</g>
<!-- Merit::RankRules -->
<g id="node4" class="node"><title>Merit::RankRules</title>
<polygon fill="none" stroke="black" points="578.39,-217 464.39,-217 464.39,-181 578.39,-181 578.39,-217"/>
<text text-anchor="middle" x="521.39" y="-195.3" font-family="Times,serif" font-size="14.00">Merit::RankRules</text>
</g>
<!-- Merit::BadgeRules -->
<g id="node5" class="node"><title>Merit::BadgeRules</title>
<polygon fill="none" stroke="black" points="716.39,-217 596.39,-217 596.39,-181 716.39,-181 716.39,-217"/>
<text text-anchor="middle" x="656.39" y="-195.3" font-family="Times,serif" font-size="14.00">Merit::BadgeRules</text>
</g>
<!-- Merit::PointRules -->
<g id="node6" class="node"><title>Merit::PointRules</title>
<polygon fill="none" stroke="black" points="848.39,-217 734.39,-217 734.39,-181 848.39,-181 848.39,-217"/>
<text text-anchor="middle" x="791.39" y="-195.3" font-family="Times,serif" font-size="14.00">Merit::PointRules</text>
</g>
<!-- CanvasFinancieroIngreso -->
<g id="node7" class="node"><title>CanvasFinancieroIngreso</title>
<ellipse fill="none" stroke="black" cx="967.39" cy="-199" rx="100.983" ry="18"/>
<text text-anchor="middle" x="967.39" y="-195.3" font-family="Times,serif" font-size="14.00">CanvasFinancieroIngreso</text>
</g>
<!-- Etapa -->
<g id="node9" class="node"><title>Etapa</title>
<ellipse fill="none" stroke="black" cx="1116.39" cy="-199" rx="30.5947" ry="18"/>
<text text-anchor="middle" x="1116.39" y="-195.3" font-family="Times,serif" font-size="14.00">Etapa</text>
</g>
<!-- CanvasLadoDerecho -->
<g id="node10" class="node"><title>CanvasLadoDerecho</title>
<ellipse fill="none" stroke="black" cx="1249.39" cy="-199" rx="84.485" ry="18"/>
<text text-anchor="middle" x="1249.39" y="-195.3" font-family="Times,serif" font-size="14.00">CanvasLadoDerecho</text>
</g>
<!-- Wiki -->
<g id="node11" class="node"><title>Wiki</title>
<ellipse fill="none" stroke="black" cx="1380.39" cy="-199" rx="28.6953" ry="18"/>
<text text-anchor="middle" x="1380.39" y="-195.3" font-family="Times,serif" font-size="14.00">Wiki</text>
</g>
<!-- Admin -->
<g id="node12" class="node"><title>Admin</title>
<ellipse fill="none" stroke="black" cx="1462.39" cy="-199" rx="35.9954" ry="18"/>
<text text-anchor="middle" x="1462.39" y="-195.3" font-family="Times,serif" font-size="14.00">Admin</text>
</g>
<!-- ActsAsTaggableOn::Tagging -->
<g id="node20" class="node"><title>ActsAsTaggableOn::Tagging</title>
<ellipse fill="none" stroke="black" cx="114.39" cy="-18" rx="114.28" ry="18"/>
<text text-anchor="middle" x="114.39" y="-14.3" font-family="Times,serif" font-size="14.00">ActsAsTaggableOn::Tagging</text>
</g>
<!-- Dream&#45;&gt;ActsAsTaggableOn::Tagging -->
<g id="edge5" class="edge"><title>Dream&#45;&gt;ActsAsTaggableOn::Tagging</title>
<path fill="none" stroke="#7a6c38" d="M231.474,-89.8761C228.104,-88.7821 224.704,-87.7957 221.39,-87 183.376,-77.8746 72.5812,-98.0235 46.3899,-69 36.2958,-57.8145 45.2797,-47.5483 59.6448,-39.2674"/>
<ellipse fill="none" stroke="#7a6c38" cx="235.453" cy="-91.2658" rx="4.00001" ry="4.00001"/>
<polygon fill="#7a6c38" stroke="#7a6c38" points="59.7369,-39.2198 70.6868,-38.627 64.179,-36.9245 68.621,-34.6291 68.621,-34.6291 68.621,-34.6291 64.179,-36.9245 66.5552,-30.6313 59.7369,-39.2198 59.7369,-39.2198"/>
<text text-anchor="middle" x="69.3899" y="-57.8" font-family="Times,serif" font-size="14.00">taggings</text>
</g>
<!-- Dream&#45;&gt;ActsAsTaggableOn::Tagging -->
<g id="edge7" class="edge"><title>Dream&#45;&gt;ActsAsTaggableOn::Tagging</title>
<path fill="none" stroke="#207a72" d="M231.416,-90.1042C228.058,-88.9637 224.677,-87.9041 221.39,-87 198.353,-80.6627 130.987,-87.0992 115.39,-69 110.05,-62.8032 108.505,-54.3951 108.685,-46.2427"/>
<ellipse fill="none" stroke="#207a72" cx="235.388" cy="-91.5279" rx="4.00001" ry="4.00001"/>
<polygon fill="#207a72" stroke="#207a72" points="108.69,-46.1897 114.158,-36.6842 109.185,-41.2142 109.68,-36.2387 109.68,-36.2387 109.68,-36.2387 109.185,-41.2142 105.202,-35.7933 108.69,-46.1897 108.69,-46.1897"/>
<text text-anchor="middle" x="150.39" y="-57.8" font-family="Times,serif" font-size="14.00">tag_taggings</text>
</g>
<!-- Dream&#45;&gt;ActsAsTaggableOn::Tagging -->
<g id="edge9" class="edge"><title>Dream&#45;&gt;ActsAsTaggableOn::Tagging</title>
<path fill="none" stroke="#a4d725" d="M236.293,-86.8715C226.991,-81.2815 216.696,-74.9741 207.39,-69 197.431,-62.607 195.611,-59.9643 185.39,-54 176.933,-49.0651 167.683,-44.166 158.738,-39.665"/>
<ellipse fill="none" stroke="#a4d725" cx="239.746" cy="-88.9362" rx="4.00002" ry="4.00002"/>
<polygon fill="#a4d725" stroke="#a4d725" points="158.536,-39.5654 151.566,-31.0998 154.054,-37.3496 149.572,-35.1339 149.572,-35.1339 149.572,-35.1339 154.054,-37.3496 147.577,-39.1679 158.536,-39.5654 158.536,-39.5654"/>
<text text-anchor="middle" x="253.89" y="-57.8" font-family="Times,serif" font-size="14.00">tag_list_taggings</text>
</g>
<!-- ActsAsTaggableOn::Tag -->
<g id="node21" class="node"><title>ActsAsTaggableOn::Tag</title>
<ellipse fill="none" stroke="black" cx="399.39" cy="-18" rx="98.5829" ry="18"/>
<text text-anchor="middle" x="399.39" y="-14.3" font-family="Times,serif" font-size="14.00">ActsAsTaggableOn::Tag</text>
</g>
<!-- Dream&#45;&gt;ActsAsTaggableOn::Tag -->
<g id="edge6" class="edge"><title>Dream&#45;&gt;ActsAsTaggableOn::Tag</title>
<path fill="none" stroke="#45e745" d="M288.496,-81.928C298.953,-72.6143 311.778,-62.0809 324.39,-54 332.829,-48.5932 342.236,-43.5344 351.459,-39.0354"/>
<polygon fill="#45e745" stroke="#45e745" points="288.398,-82.018 277.974,-85.4248 284.701,-85.3848 281.005,-88.7517 281.005,-88.7517 281.005,-88.7517 284.701,-85.3848 284.035,-92.0786 288.398,-82.018 288.398,-82.018"/>
<polygon fill="#45e745" stroke="#45e745" points="351.534,-39.0001 362.498,-38.8002 356.055,-36.8655 360.577,-34.7309 360.577,-34.7309 360.577,-34.7309 356.055,-36.8655 358.656,-30.6616 351.534,-39.0001 351.534,-39.0001"/>
<text text-anchor="middle" x="350.89" y="-57.8" font-family="Times,serif" font-size="14.00">base_tags</text>
</g>
<!-- Dream&#45;&gt;ActsAsTaggableOn::Tag -->
<g id="edge8" class="edge"><title>Dream&#45;&gt;ActsAsTaggableOn::Tag</title>
<path fill="none" stroke="#d0d8af" d="M301.953,-89.8445C304.796,-88.8488 307.633,-87.8888 310.39,-87 339.737,-77.5402 353.994,-89.0838 377.39,-69 384.424,-62.9617 389.294,-54.2448 392.627,-45.7751"/>
<polygon fill="#d0d8af" stroke="#d0d8af" points="301.768,-89.9116 290.833,-89.0838 297.066,-91.6134 292.365,-93.3152 292.365,-93.3152 292.365,-93.3152 297.066,-91.6134 293.896,-97.5465 301.768,-89.9116 301.768,-89.9116"/>
<polygon fill="#d0d8af" stroke="#d0d8af" points="392.685,-45.6006 400.136,-37.5549 394.278,-40.861 395.871,-36.1215 395.871,-36.1215 395.871,-36.1215 394.278,-40.861 391.605,-34.688 392.685,-45.6006 392.685,-45.6006"/>
<text text-anchor="middle" x="398.39" y="-57.8" font-family="Times,serif" font-size="14.00">tags</text>
</g>
<!-- Dream&#45;&gt;ActsAsTaggableOn::Tag -->
<g id="edge10" class="edge"><title>Dream&#45;&gt;ActsAsTaggableOn::Tag</title>
<path fill="none" stroke="#991766" d="M301.344,-89.7381C304.381,-88.7411 307.425,-87.8115 310.39,-87 332.802,-80.8671 398.441,-86.7883 413.39,-69 419.036,-62.2812 418.363,-53.4411 415.36,-45.0649"/>
<polygon fill="#991766" stroke="#991766" points="301.205,-89.7867 290.28,-88.8425 296.486,-91.4383 291.767,-93.0899 291.767,-93.0899 291.767,-93.0899 296.486,-91.4383 293.253,-97.3373 301.205,-89.7867 301.205,-89.7867"/>
<polygon fill="#991766" stroke="#991766" points="415.348,-45.0387 415.286,-34.073 413.271,-40.4908 411.193,-35.9429 411.193,-35.9429 411.193,-35.9429 413.271,-40.4908 407.1,-37.8128 415.348,-45.0387 415.348,-45.0387"/>
<text text-anchor="middle" x="437.39" y="-57.8" font-family="Times,serif" font-size="14.00">tag_list</text>
</g>
<!-- Pedido -->
<g id="node14" class="node"><title>Pedido</title>
<ellipse fill="none" stroke="black" cx="1551.39" cy="-199" rx="35.194" ry="18"/>
<text text-anchor="middle" x="1551.39" y="-195.3" font-family="Times,serif" font-size="14.00">Pedido</text>
</g>
<!-- CanvasLadoIzquierdo -->
<g id="node17" class="node"><title>CanvasLadoIzquierdo</title>
<ellipse fill="none" stroke="black" cx="1692.39" cy="-199" rx="88.2844" ry="18"/>
<text text-anchor="middle" x="1692.39" y="-195.3" font-family="Times,serif" font-size="14.00">CanvasLadoIzquierdo</text>
</g>
<!-- CanvasFinancieroCosto -->
<g id="node18" class="node"><title>CanvasFinancieroCosto</title>
<ellipse fill="none" stroke="black" cx="1893.39" cy="-199" rx="94.7833" ry="18"/>
<text text-anchor="middle" x="1893.39" y="-195.3" font-family="Times,serif" font-size="14.00">CanvasFinancieroCosto</text>
</g>
<!-- Producto -->
<g id="node19" class="node"><title>Producto</title>
<ellipse fill="none" stroke="black" cx="2048.39" cy="-199" rx="42.4939" ry="18"/>
<text text-anchor="middle" x="2048.39" y="-195.3" font-family="Times,serif" font-size="14.00">Producto</text>
</g>
</g>
</svg>
